<svg version="1.2" xmlns="http://www.w3.org/2000/svg" viewBox="0 0 40 40" width="40" height="40"><style>.a{fill:#9d76c1}.b{fill:#fff}</style><path class="a" d="m0 20c0-11.1 8.9-20 20-20 11.1 0 20 8.9 20 20 0 11.1-8.9 20-20 20-11.1 0-20-8.9-20-20z"/><path class="b" d="m28.4 18.7c0.4-0.3 0.6-0.8 0.6-1.3 0-0.5-0.2-0.9-0.5-1.3-0.4-0.4-0.8-0.6-1.3-0.6-0.5 0-1 0.2-1.4 0.5l-5.8 5.5-5.8-5.5c-0.4-0.3-0.9-0.5-1.4-0.5-0.5 0-0.9 0.2-1.3 0.6-0.3 0.4-0.5 0.8-0.5 1.3 0 0.5 0.2 1 0.6 1.3l7.1 6.8q0.3 0.2 0.6 0.4 0.3 0.1 0.7 0.1 0.4 0 0.7-0.1 0.3-0.2 0.6-0.4z"/></svg>